<svg width="36" height="33" viewBox="0 0 36 33" fill="none" xmlns="http://www.w3.org/2000/svg">
<path d="M8.47266 15.0081C7.92037 15.0081 7.47266 15.4558 7.47266 16.0081C7.47266 16.5603 7.92037 17.0081 8.47266 17.0081V15.0081ZM27.5645 16.7152C27.9551 16.3246 27.9551 15.6915 27.5645 15.3009L21.2006 8.93699C20.8101 8.54646 20.1769 8.54646 19.7864 8.93699C19.3958 9.32751 19.3958 9.96068 19.7864 10.3512L25.4432 16.0081L19.7864 21.6649C19.3958 22.0554 19.3958 22.6886 19.7864 23.0791C20.1769 23.4696 20.8101 23.4696 21.2006 23.0791L27.5645 16.7152ZM8.47266 17.0081H26.8574V15.0081L8.47266 15.0081V17.0081Z" fill="#F2683C"/>
</svg>
