<svg width="54" height="53" viewBox="0 0 54 53" fill="none" xmlns="http://www.w3.org/2000/svg">
<g clip-path="url(#clip0_2_805)">
<circle cx="26.9727" cy="26.5081" r="26.5" fill="white"/>
<path d="M18.4727 24.5081C17.6442 24.5081 16.9727 25.1796 16.9727 26.0081C16.9727 26.8365 17.6442 27.5081 18.4727 27.5081V24.5081ZM37.9181 27.0687C38.5039 26.4829 38.5039 25.5332 37.9181 24.9474L28.3722 15.4015C27.7864 14.8157 26.8366 14.8157 26.2508 15.4015C25.665 15.9872 25.665 16.937 26.2508 17.5228L34.7361 26.0081L26.2508 34.4933C25.665 35.0791 25.665 36.0289 26.2508 36.6147C26.8366 37.2004 27.7864 37.2004 28.3722 36.6147L37.9181 27.0687ZM18.4727 27.5081H36.8574V24.5081H18.4727V27.5081Z" fill="#F2683C"/>
</g>
<defs>
<clipPath id="clip0_2_805">
<rect width="53" height="53" fill="white" transform="translate(0.472656 0.00805664)"/>
</clipPath>
</defs>
</svg>
