<svg width="31" height="30" viewBox="0 0 31 30" fill="none" xmlns="http://www.w3.org/2000/svg">
<path fill-rule="evenodd" clip-rule="evenodd" d="M15.1652 0C6.94716 0 0.285156 6.662 0.285156 14.88C0.285156 23.098 6.94716 29.76 15.1652 29.76C23.3832 29.76 30.0452 23.098 30.0452 14.88C30.0452 6.662 23.3832 0 15.1652 0ZM11.8929 6.99228C12.7395 6.95376 13.01 6.94434 15.1653 6.94434H15.1628C17.3187 6.94434 17.5882 6.95376 18.4348 6.99228C19.2796 7.03097 19.8566 7.16473 20.3626 7.36098C20.885 7.56352 21.3265 7.83467 21.7679 8.27611C22.2094 8.71722 22.4805 9.15999 22.6839 9.68195C22.879 10.1866 23.0129 10.7632 23.0526 11.6081C23.0906 12.4546 23.1005 12.7251 23.1005 14.8804C23.1005 17.0357 23.0906 17.3056 23.0526 18.1521C23.0129 18.9966 22.879 19.5735 22.6839 20.0782C22.4805 20.6 22.2094 21.0428 21.7679 21.4839C21.327 21.9253 20.8849 22.1972 20.3631 22.3999C19.8581 22.5961 19.2808 22.7299 18.4359 22.7686C17.5894 22.8071 17.3197 22.8165 15.1643 22.8165C13.0091 22.8165 12.7388 22.8071 11.8923 22.7686C11.0476 22.7299 10.4707 22.5961 9.9658 22.3999C9.44417 22.1972 9.0014 21.9253 8.56045 21.4839C8.11918 21.0428 7.84803 20.6 7.64516 20.0781C7.44907 19.5735 7.31532 18.9968 7.27646 18.1519C7.2381 17.3054 7.22852 17.0357 7.22852 14.8804C7.22852 12.7251 7.23844 12.4545 7.2763 11.6079C7.31432 10.7634 7.44825 10.1866 7.64499 9.68179C7.84836 9.15999 8.11951 8.71722 8.56095 8.27611C9.00206 7.83483 9.44483 7.56368 9.96679 7.36098C10.4714 7.16473 11.0481 7.03097 11.8929 6.99228Z" fill="white"/>
<path fill-rule="evenodd" clip-rule="evenodd" d="M14.4542 8.37405C14.5924 8.37384 14.7411 8.3739 14.9016 8.37398L15.1661 8.37405C17.285 8.37405 17.5362 8.38166 18.3729 8.41969C19.1467 8.45507 19.5666 8.58436 19.8464 8.69299C20.2167 8.83683 20.4808 9.00878 20.7584 9.28654C21.0361 9.5643 21.2081 9.82884 21.3523 10.1992C21.4609 10.4786 21.5903 10.8986 21.6256 11.6723C21.6636 12.5089 21.6719 12.7602 21.6719 14.8782C21.6719 16.9961 21.6636 17.2474 21.6256 18.084C21.5902 18.8578 21.4609 19.2777 21.3523 19.5572C21.2084 19.9275 21.0361 20.1912 20.7584 20.4688C20.4806 20.7466 20.2169 20.9185 19.8464 21.0624C19.567 21.1715 19.1467 21.3004 18.3729 21.3358C17.5363 21.3739 17.285 21.3821 15.1661 21.3821C13.047 21.3821 12.7958 21.3739 11.9593 21.3358C11.1855 21.3001 10.7655 21.1708 10.4856 21.0622C10.1153 20.9184 9.85073 20.7464 9.57297 20.4686C9.29521 20.1909 9.12326 19.927 8.97909 19.5565C8.87046 19.2771 8.74101 18.8571 8.70579 18.0834C8.66776 17.2468 8.66016 16.9955 8.66016 14.8762C8.66016 12.7569 8.66776 12.5069 8.70579 11.6703C8.74117 10.8966 8.87046 10.4766 8.97909 10.1969C9.12293 9.82652 9.29521 9.56199 9.57297 9.28422C9.85073 9.00646 10.1153 8.83451 10.4856 8.69034C10.7654 8.58122 11.1855 8.45226 11.9593 8.41671C12.6914 8.38364 12.9751 8.37372 14.4542 8.37207V8.37405ZM19.4015 9.69174C18.8758 9.69174 18.4492 10.1178 18.4492 10.6437C18.4492 11.1695 18.8758 11.5961 19.4015 11.5961C19.9273 11.5961 20.3539 11.1695 20.3539 10.6437C20.3539 10.118 19.9273 9.69141 19.4015 9.69141V9.69174ZM11.0898 14.8802C11.0898 12.6295 12.9146 10.8048 15.1652 10.8047C17.4159 10.8047 19.2402 12.6295 19.2402 14.8802C19.2402 17.1309 17.4161 18.9549 15.1654 18.9549C12.9146 18.9549 11.0898 17.1309 11.0898 14.8802Z" fill="white"/>
<path d="M15.1668 12.2344C16.6277 12.2344 17.8122 13.4187 17.8122 14.8797C17.8122 16.3406 16.6277 17.5251 15.1668 17.5251C13.7058 17.5251 12.5215 16.3406 12.5215 14.8797C12.5215 13.4187 13.7058 12.2344 15.1668 12.2344Z" fill="white"/>
</svg>
