<svg width="31" height="30" viewBox="0 0 31 30" fill="none" xmlns="http://www.w3.org/2000/svg">
<path fill-rule="evenodd" clip-rule="evenodd" d="M15.6417 0C7.42372 0 0.761719 6.662 0.761719 14.88C0.761719 23.098 7.42372 29.76 15.6417 29.76C23.8597 29.76 30.5217 23.098 30.5217 14.88C30.5217 6.662 23.8597 0 15.6417 0ZM7.9043 12.3242H11.2764V22.4561H7.9043V12.3242ZM11.4987 9.1905C11.4768 8.19708 10.7664 7.44043 9.61284 7.44043C8.45925 7.44043 7.70508 8.19708 7.70508 9.1905C7.70508 10.1633 8.43696 10.9418 9.56907 10.9418H9.59062C10.7664 10.9418 11.4987 10.1633 11.4987 9.1905ZM19.5566 12.0859C21.7756 12.0859 23.4392 13.5343 23.4392 16.6464L23.4391 22.4557H20.0671V17.0352C20.0671 15.6736 19.5791 14.7446 18.3584 14.7446C17.4267 14.7446 16.8718 15.3709 16.6281 15.9758C16.539 16.1926 16.5171 16.4947 16.5171 16.7975V22.456H13.1445C13.1445 22.456 13.189 13.2748 13.1445 12.3241H16.5171V13.7592C16.9646 13.0693 17.7662 12.0859 19.5566 12.0859Z" fill="white"/>
</svg>
