<svg width="30" height="30" viewBox="0 0 30 30" fill="none" xmlns="http://www.w3.org/2000/svg">
<path fill-rule="evenodd" clip-rule="evenodd" d="M14.9269 0C6.70888 0 0.046875 6.662 0.046875 14.88C0.046875 23.098 6.70888 29.76 14.9269 29.76C23.1449 29.76 29.8069 23.098 29.8069 14.88C29.8069 6.662 23.1449 0 14.9269 0ZM14.5119 12.6093L14.4807 12.0944C14.387 10.7599 15.2093 9.54099 16.5103 9.06814C16.9891 8.90002 17.8009 8.879 18.3317 9.02611C18.5399 9.08916 18.9354 9.29931 19.2164 9.48845L19.7264 9.83521L20.2885 9.65658C20.6007 9.56201 21.0171 9.40439 21.2044 9.29931C21.3813 9.20474 21.5375 9.1522 21.5375 9.18373C21.5375 9.36236 21.1524 9.97181 20.8297 10.3081C20.3926 10.7809 20.5175 10.8229 21.4022 10.5077C21.933 10.3291 21.9434 10.3291 21.8393 10.5287C21.7769 10.6338 21.4542 11.0016 21.1107 11.3378C20.5279 11.9158 20.4966 11.9788 20.4966 12.4622C20.4966 13.2082 20.1428 14.7634 19.7889 15.6145C19.1332 17.2117 17.728 18.8614 16.3229 19.6915C14.3454 20.8579 11.7121 21.1521 9.49512 20.4691C8.75613 20.2379 7.48633 19.6495 7.48633 19.5444C7.48633 19.5129 7.87143 19.4709 8.3398 19.4603C9.31818 19.4393 10.2966 19.1661 11.1292 18.6828L11.6913 18.3465L11.046 18.1259C10.13 17.8106 9.30777 17.0856 9.09961 16.4026C9.03716 16.1819 9.05797 16.1714 9.64084 16.1714L10.2445 16.1609L9.73451 15.9192C9.13083 15.6145 8.5792 15.0996 8.30858 14.5742C8.11082 14.1959 7.86103 13.2397 7.93388 13.1662C7.9547 13.1347 8.17327 13.1977 8.42307 13.2818C9.14124 13.5445 9.23491 13.4814 8.81858 13.0401C8.03797 12.2415 7.79858 11.0541 8.17327 9.92978L8.35021 9.42541L9.03716 10.1084C10.4423 11.4849 12.0972 12.3045 13.9915 12.5462L14.5119 12.6093Z" fill="white"/>
</svg>
