<svg width="31" height="30" viewBox="0 0 31 30" fill="none" xmlns="http://www.w3.org/2000/svg">
<path fill-rule="evenodd" clip-rule="evenodd" d="M15.4034 0C7.18544 0 0.523438 6.662 0.523438 14.88C0.523438 23.098 7.18544 29.76 15.4034 29.76C23.6214 29.76 30.2834 23.098 30.2834 14.88C30.2834 6.662 23.6214 0 15.4034 0ZM21.6038 9.76441C22.2867 9.95182 22.8246 10.504 23.0071 11.2052C23.3388 12.4761 23.3388 15.1278 23.3388 15.1278C23.3388 15.1278 23.3388 17.7795 23.0071 19.0504C22.8246 19.7517 22.2867 20.3038 21.6038 20.4913C20.3661 20.8318 15.4028 20.8318 15.4028 20.8318C15.4028 20.8318 10.4395 20.8318 9.20171 20.4913C8.51877 20.3038 7.98092 19.7517 7.7984 19.0504C7.4668 17.7795 7.4668 15.1278 7.4668 15.1278C7.4668 15.1278 7.4668 12.4761 7.7984 11.2052C7.98092 10.504 8.51877 9.95182 9.20171 9.76441C10.4395 9.42383 15.4028 9.42383 15.4028 9.42383C15.4028 9.42383 20.3661 9.42383 21.6038 9.76441Z" fill="white"/>
<path d="M13.916 17.8565V12.8965L17.884 15.3766L13.916 17.8565Z" fill="white"/>
</svg>
