<svg width="23" height="23" viewBox="0 0 23 23" fill="none" xmlns="http://www.w3.org/2000/svg">
<path d="M1.58579 18.7606C0.804738 19.5416 0.804738 20.808 1.58579 21.589C2.36684 22.3701 3.63316 22.3701 4.41421 21.589L1.58579 18.7606ZM22.3333 2.84147C22.3333 1.7369 21.4379 0.84147 20.3333 0.841471L2.33333 0.84147C1.22876 0.84147 0.333335 1.7369 0.333335 2.84147C0.333335 3.94604 1.22876 4.84147 2.33333 4.84147L18.3333 4.84147L18.3333 20.8415C18.3333 21.946 19.2288 22.8415 20.3333 22.8415C21.4379 22.8415 22.3333 21.946 22.3333 20.8415L22.3333 2.84147ZM4.41421 21.589L21.7475 4.25568L18.9191 1.42726L1.58579 18.7606L4.41421 21.589Z" fill="white"/>
</svg>
